<svg width="499" height="500" viewBox="0 0 499 500" fill="none" xmlns="http://www.w3.org/2000/svg">
<rect width="498.752" height="499.037" rx="45" fill="#34963E"/>
<path d="M320.946 160.805C320.946 143.456 313.978 126.107 300.008 112.902L249.41 65L198.745 112.902C184.775 126.074 177.806 143.456 177.806 160.805C177.806 178.153 184.775 195.502 198.745 208.606L237.392 245.122L249.41 256.475L300.008 208.572C313.978 195.468 320.946 178.019 320.946 160.771V160.805ZM276.073 185.969L249.444 211.132L222.815 185.969C215.476 179.029 211.807 169.934 211.807 160.805C211.807 151.676 215.476 142.513 222.815 135.641L249.41 110.477L276.039 135.641C283.276 142.479 286.98 151.608 286.98 160.805C286.98 170.001 283.31 179.029 276.039 185.969H276.073Z" fill="white"/>
<path d="M160.738 245.83H89V313.506C89 332.168 97.0787 349.08 110.041 361.408C123.069 373.637 140.977 381.284 160.738 381.284H164.407V349.113H160.738C150.37 349.113 141.011 345.137 134.109 338.704C127.309 332.202 123.101 323.342 123.101 313.54V277.966H160.738C171.005 277.966 180.465 281.942 187.265 288.477C194.167 294.911 198.375 303.839 198.375 313.54V434.037H232.343V313.54C232.343 294.878 224.364 277.966 211.302 265.739C198.341 253.409 180.431 245.864 160.704 245.864L160.738 245.83Z" fill="white"/>
<path d="M338.047 245.83C318.32 245.83 300.41 253.376 287.45 265.705C274.489 277.933 266.409 294.844 266.409 313.506V434.003H300.377V313.506C300.377 303.805 304.585 294.844 311.486 288.443C318.287 281.942 327.745 277.933 338.014 277.933H375.649V313.506C375.649 323.309 371.443 332.168 364.642 338.67C357.741 345.104 348.382 349.08 338.014 349.08H334.446V381.25H338.014C357.741 381.25 375.649 373.603 388.711 361.375C401.672 349.046 409.752 332.134 409.752 313.472V245.796H338.047V245.83Z" fill="white"/>
</svg>
