<svg width="758" height="154" viewBox="0 0 758 154" fill="none" xmlns="http://www.w3.org/2000/svg">
<path d="M138.707 121V66.472H127.315V56.872H138.707V50.088C138.707 36.904 148.691 30.76 161.363 30.76C163.667 30.76 166.227 30.888 170.067 31.4V40.744C168.147 40.488 164.179 40.36 162.387 40.36C154.195 40.36 149.715 43.432 149.715 51.368V56.872H170.067V66.472H149.715V121H138.707ZM180.408 76.84C181.048 61.48 189.88 54.568 209.592 54.312C230.456 54.44 238.648 62.76 238.648 78.76V121H228.024V111.4C222.904 117.672 215.352 122.152 203.064 122.024C187.192 122.024 176.44 115.24 176.44 101.8C176.44 83.752 195.512 80.808 214.456 80.424L227.896 80.168V78.248C227.896 68.008 223.416 63.784 209.592 63.784C196.536 63.784 191.8 67.624 191.416 76.84H180.408ZM187.448 101.8C187.448 108.328 192.312 112.424 204.216 112.424C218.168 112.424 227.896 107.048 227.896 96.808V88.488L215.224 89C194.232 89.64 187.448 93.224 187.448 101.8ZM250.565 121V57H261.445V65.96C268.741 56.36 281.029 53.928 290.757 55.976L289.221 66.088C276.549 63.784 261.445 68.648 261.445 82.216V121H250.565ZM301.065 121V56.872H311.945V65.704C317.961 58.28 326.537 54.312 334.985 54.312C345.865 54.312 352.649 58.024 356.105 66.216C362.761 58.28 371.721 54.312 381.705 54.312C396.937 54.312 405.385 61.736 405.385 76.968V121H394.377V79.272C394.377 68.648 390.281 64.296 379.913 64.296C370.569 64.296 358.665 69.288 358.665 80.68V121H347.913V79.272C347.913 69.032 343.561 64.296 333.449 64.296C323.209 64.296 311.945 70.824 311.945 82.344V121H301.065ZM475.707 83.112C474.555 71.208 466.491 64.04 451.899 64.04C437.563 64.04 429.499 71.208 428.475 83.112H475.707ZM416.315 88.488C416.315 66.984 430.523 54.312 452.283 54.312C474.171 54.312 487.867 66.984 487.739 88.36V91.816H427.963C428.859 104.616 436.539 112.68 451.899 112.68C465.339 112.68 473.019 106.92 475.451 96.936H486.971C483.387 113.576 470.331 122.536 451.899 122.536C429.627 122.536 416.315 109.736 416.315 88.488ZM568.602 94.76C565.786 112.936 552.346 122.536 533.274 122.536C511.002 122.536 497.69 109.736 497.69 88.488C497.69 66.984 511.898 54.312 533.658 54.312C553.242 54.312 566.042 64.296 568.602 81.704H557.466C555.418 70.568 546.97 64.04 533.274 64.04C516.762 64.04 508.954 73.384 508.954 88.488C508.954 103.336 516.762 112.68 533.274 112.68C547.482 112.68 555.418 105.896 557.466 94.76H568.602ZM580.44 121V31.4H591.32V65.064C598.488 57.512 607.32 54.312 617.176 54.312C634.072 54.312 642.776 62.504 642.776 78.248V121H632.024V80.424C632.024 69.416 627.16 64.296 615.384 64.296C603.992 64.296 591.32 70.056 591.32 82.6V121H580.44ZM688.649 122.536C666.377 122.536 653.065 109.736 653.065 88.488C653.065 66.984 667.273 54.312 689.033 54.312C710.921 54.312 724.489 66.984 724.489 88.36C724.489 109.608 710.665 122.536 688.649 122.536ZM664.329 88.488C664.329 103.336 672.137 112.68 688.649 112.68C705.417 112.68 713.353 103.208 713.353 88.36C713.353 73.512 705.417 64.04 688.649 64.04C672.137 64.04 664.329 73.384 664.329 88.488ZM736.449 115.368C736.449 105.768 751.041 105.768 751.041 115.368C751.041 124.84 736.449 124.712 736.449 115.368Z" fill="white"/>
<path d="M79.1957 44.6898C79.1957 38.7702 76.8164 32.8507 72.0463 28.3449L54.7703 12L37.4714 28.3449C32.7013 32.8392 30.322 38.7702 30.322 44.6898C30.322 50.6093 32.7013 56.5289 37.4714 61.0002L50.6669 73.46L54.7703 77.3336L72.0463 60.9887C76.8164 56.5174 79.1957 50.5634 79.1957 44.6783V44.6898ZM63.8738 53.276L54.7818 61.8623L45.6898 53.276C43.1841 50.9082 41.9312 47.8047 41.9312 44.6898C41.9312 41.5748 43.1841 38.4484 45.6898 36.1035L54.7703 27.5173L63.8623 36.1035C66.3336 38.4369 67.598 41.5518 67.598 44.6898C67.598 47.8277 66.3451 50.9082 63.8623 53.276H63.8738Z" fill="white"/>
<path d="M24.4944 73.7014H7.62939e-06V96.7935C7.62939e-06 103.161 2.75864 108.931 7.18394 113.138C11.6322 117.311 17.7472 119.92 24.4944 119.92H25.7472V108.943H24.4944C20.9541 108.943 17.7587 107.587 15.4024 105.391C13.0805 103.173 11.6437 100.15 11.6437 96.805V84.667H24.4944C28.0001 84.667 31.23 86.0233 33.5519 88.2532C35.9082 90.4486 37.345 93.4946 37.345 96.805V137.92H48.9427V96.805C48.9427 90.4371 46.2186 84.667 41.7588 80.4945C37.3335 76.2876 31.2185 73.7129 24.4829 73.7129L24.4944 73.7014Z" fill="white"/>
<path d="M85.0348 73.7014C78.2991 73.7014 72.1842 76.2761 67.7589 80.483C63.3336 84.6554 60.5749 90.4256 60.5749 96.7934V137.909H72.1727V96.7934C72.1727 93.4831 73.6095 90.4256 75.9658 88.2417C78.2876 86.0233 81.5176 84.6554 85.0233 84.6554H97.8739V96.7934C97.8739 100.138 96.4371 103.161 94.1153 105.38C91.759 107.575 88.5636 108.931 85.0233 108.931H83.8049V119.908H85.0233C91.759 119.908 97.8739 117.299 102.334 113.127C106.759 108.92 109.518 103.15 109.518 96.7819V73.6899H85.0348V73.7014Z" fill="white"/>
</svg>
